<?xml version="1.0" encoding="UTF-8"?>
<svg width="32px" height="32px" viewBox="0 0 32 32" version="1.1" xmlns="http://www.w3.org/2000/svg" xmlns:xlink="http://www.w3.org/1999/xlink">
    <!-- Generator: Sketch 51.1 (57501) - http://www.bohemiancoding.com/sketch -->
    <title>xxxx copy</title>
    <desc>Created with Sketch.</desc>
    <defs></defs>
    <g id="xxxx-copy" stroke="none" stroke-width="1" fill="none" fill-rule="evenodd">
        <g id="Group" transform="translate(0.000000, 5.000000)" fill="#222222" fill-rule="nonzero">
            <path d="M10.06336,26.40352 C22.13888,26.40352 28.74368,16.39904 28.74368,7.7232 C28.74368,7.43904 28.74368,7.15616 28.72448,6.87456 C30.0093841,5.9451659 31.118535,4.79440563 32,3.47616 C30.8017652,4.00710627 29.5306615,4.35530067 28.22912,4.50912 C29.5996723,3.68861703 30.6254381,2.39810814 31.11552,0.87776 C29.8267616,1.6425028 28.416827,2.18145539 26.94656,2.47136 C24.9114659,0.307384677 21.6777208,-0.222255892 19.0586231,1.17943031 C16.4395254,2.58111651 15.086432,5.56553693 15.75808,8.4592 C10.4792265,8.19455941 5.560929,5.70121379 2.2272,1.59968 C0.484637128,4.59954525 1.37470449,8.43726013 4.25984,10.36384 C3.21502874,10.3328737 2.1929976,10.0510249 1.28,9.54208 C1.28,9.56896 1.28,9.59712 1.28,9.62528 C1.28085521,12.750519 3.4838419,15.442285 6.5472,16.06112 C5.58063308,16.3247233 4.56650315,16.3632567 3.58272,16.17376 C4.44281335,18.8482212 6.90761544,20.6803633 9.71648,20.73312 C7.39166085,22.5602329 4.51975617,23.5520995 1.56288,23.54912 C1.04051657,23.5481172 0.518661204,23.5164896 0,23.4544 C3.00241402,25.381154 6.49588915,26.4031577 10.06336,26.3984" id="Shape"></path>
        </g>
    </g>
</svg>