<?xml version="1.0" encoding="UTF-8"?>
<svg width="32px" height="32px" viewBox="0 0 32 32" version="1.1" xmlns="http://www.w3.org/2000/svg" xmlns:xlink="http://www.w3.org/1999/xlink">
    <!-- Generator: Sketch 51.1 (57501) - http://www.bohemiancoding.com/sketch -->
    <title>xxxx copy</title>
    <desc>Created with Sketch.</desc>
    <defs></defs>
    <g id="xxxx-copy" stroke="none" stroke-width="1" fill="none" fill-rule="evenodd">
        <g id="Group-2" transform="translate(0.000000, 1.000000)" fill="#222222">
            <path d="M32,18.7466667 L32,30.5782222 L25.1404444,30.5782222 L25.1404444,19.54 C25.1404444,16.7675556 24.1493333,14.8751111 21.6666667,14.8751111 C19.7706667,14.8751111 18.644,16.1493333 18.1475556,17.3835556 C17.9671111,17.8244444 17.92,18.4373333 17.92,19.0555556 L17.92,30.5782222 L11.0591111,30.5782222 C11.0591111,30.5782222 11.1511111,11.8817778 11.0591111,9.94622222 L17.92,9.94622222 L17.92,12.8697778 C17.9062222,12.8924444 17.8871111,12.9151111 17.8751111,12.9373333 L17.92,12.9373333 L17.92,12.8697778 C18.8315556,11.4671111 20.4582222,9.46177778 24.1022222,9.46177778 C28.6164444,9.46177778 32,12.4097778 32,18.7466667 Z M3.88177778,0 C1.53466667,0 0,1.54 0,3.56444444 C0,5.54533333 1.49111111,7.13022222 3.79155556,7.13022222 L3.83688889,7.13022222 C6.22933333,7.13022222 7.71688889,5.54533333 7.71688889,3.56444444 C7.672,1.54 6.22933333,0 3.88177778,0 Z M0.408,30.5782222 L7.26577778,30.5782222 L7.26577778,9.94622222 L0.408,9.94622222 L0.408,30.5782222 Z" id="linkedin-logo"></path>
        </g>
    </g>
</svg>